#N canvas 343 315 900 540 10;
#X obj 100 100 cnv 15 615 370 empty empty empty 20 12 0 14 -228856
-66577 0;
#X obj 110 173 cnv 15 550 34 empty empty empty 20 12 0 14 -232576 -66577
0;
#X obj 112 383 cnv 15 550 80 empty empty empty 20 12 0 14 -203904 -66577
0;
#N canvas 0 50 450 250 (subpatch) 0;
#X array \$1-stut\$2 32 float 3;
#A 0 1 0.950003 0.950003 1 1 1 1 1 1 1 1 1 1 1 1 1 1 1 1 1 1 1 1 1
1 1 1 1 1 1 1 1;
#X coords 0 5 32 1 550 80 1 0 0;
#X restore 112 383 graph;
#X obj 665 153 vsl 20 80 0 1 0 0 empty empty vol 0 -9 0 10 -257985
-1 -1 0 1;
#X obj 668 260 nbx 2 15 1 32 0 1 empty \$1-nrndr nrnd 0 -8 0 12 -45076
-257985 -1 1 256;
#X obj 665 362 nbx 3 15 -1 1 0 0 empty \$1-cospr pan 0 -8 0 12 -45076
-257985 -1 0 256;
#X obj 693 222 bng 17 250 50 0 empty empty rand 0 -7 0 10 -258113 -1
-1;
#X obj 691 151 tgl 17 0 empty empty tgl 0 -7 0 10 -257985 -33289 -1
0 1;
#X obj 665 330 nbx 2 15 1 16 0 0 empty \$1-dsr dsamp 0 -8 0 12 -45076
-257985 -1 1 256;
#X obj 689 114 bng 17 250 50 0 empty empty snd 0 -7 0 10 -258113 -1
-1;
#X obj 110 355 hsl 550 15 0 32 0 0 empty \$1-count empty -2 -8 0 10
-1 -260097 -1 0 1;
#X obj 110 138 cnv 15 550 34 empty empty empty 20 12 0 14 -204786 -66577
0;
#X obj 110 243 cnv 15 550 34 empty empty empty 20 12 0 14 -232576 -66577
0;
#X obj 110 208 cnv 15 550 34 empty empty empty 20 12 0 14 -204786 -66577
0;
#X obj 110 330 cnv 15 550 17 empty empty empty 20 12 0 14 -261234 -66577
0;
#X obj 110 278 cnv 15 550 34 empty empty empty 20 12 0 14 -204786 -66577
0;
#N canvas 0 50 450 250 (subpatch) 0;
#X array \$1-seq\$2 32 float 3;
#A 0 -2.11428 -1.88571 -1.77143 -1.77143 -1.77143 -1.77143 -1.88571
-2 -2 -2.05714 -2.17142 -2.17142 -2.11428 -1.82857 -1.77143 -1.77143
-1.82857 -1.88571 -1.94285 -2 -2.11428 -2.05714 -2 -1.94285 -2 -2.11428
-2.11428 -2.05714 -2 -1.94285 -2 -2;
#X coords 0 10 32 -2 550 210 1 0 0;
#X restore 109 138 graph;
#X obj 110 313 cnv 15 550 17 empty empty empty 20 12 0 14 -191407 -66577
0;
#X obj 668 295 nbx 2 15 1 32 0 1 empty \$1-brr bitres 0 -8 0 12 -45076
-257985 -1 32 256;
#X obj 690 185 bng 17 250 50 0 empty empty rst 0 -7 0 10 -258113 -1
-1;
#X obj 744 301 s \$1-vol\$2;
#X obj 746 187 s \$1-tgl\$2;
#X obj 744 331 s \$1-br\$2;
#X obj 749 361 s \$1-ds\$2;
#X obj 742 387 s \$1-cosp\$2;
#X obj 742 211 s \$1-rst\$2;
#X obj 798 244 s \$1-rnd\$2;
#X obj 738 271 s \$1-nrnd\$2;
#X obj 713 11 loadbang;
#X obj 653 115 nbx 1 22 1 32 0 1 empty empty num 0 -8 0 15 -257985
-33289 -1 1 256;
#X obj 774 74 f \$2;
#X symbolatom 433 118 30 0 0 0 - - -, f 30;
#X obj 483 75 r \$1-name\$2;
#X obj 247 114 bng 17 250 50 0 empty empty pload 0 -7 0 10 -258113
-1 -1;
#X text 189 103 PRESETS;
#X obj 284 117 nbx 2 15 0 64 0 0 empty empty pload 0 -8 0 12 -45076
-257985 -1 0 256;
#X obj 334 115 bng 17 250 50 0 empty empty psave 0 -7 0 10 -258113
-1 -1;
#X obj 366 117 nbx 2 15 0 64 0 0 empty empty psave 0 -8 0 12 -45076
-257985 -1 1 256;
#X obj 724 137 s \$1-sndload\$2;
#X obj 208 36 s \$1-plbang\$2;
#X obj 236 63 s \$1-plnum\$2;
#X obj 351 35 s \$1-psbang\$2;
#X obj 370 62 s \$1-psnum\$2;
#X text 664 382 FILE, f 5;
#X obj 669 444 bng 17 250 50 0 empty empty psave 0 -7 0 10 -258113
-1 -1;
#X obj 667 410 bng 17 250 50 0 empty empty pload 0 -7 0 10 -258113
-1 -1;
#X obj 749 434 s \$1-flbang\$2;
#X obj 743 483 s \$1-fsbang\$2;
#X obj 300 11 loadbang;
#X connect 4 0 21 0;
#X connect 5 0 28 0;
#X connect 6 0 25 0;
#X connect 7 0 27 0;
#X connect 8 0 22 0;
#X connect 9 0 24 0;
#X connect 10 0 39 0;
#X connect 19 0 23 0;
#X connect 20 0 26 0;
#X connect 29 0 20 0;
#X connect 29 0 31 0;
#X connect 31 0 30 0;
#X connect 33 0 32 0;
#X connect 34 0 40 0;
#X connect 36 0 41 0;
#X connect 37 0 42 0;
#X connect 38 0 43 0;
#X connect 45 0 48 0;
#X connect 46 0 47 0;
#X connect 49 0 36 0;
#X coords 0 -1 1 1 615 370 1 100 100;
