#N canvas 416 114 1006 784 10;
#X obj 241 324 soundfiler;
#X obj 240 226 openpanel;
#X obj 158 463 pdkm/dkwesley~ 32 1;
#X obj 132 195 i;
#X obj 270 122 i;
#X obj 349 151 t b f;
#X msg 349 173 1;
#X obj 349 195 /;
#X obj 120 42 t f f;
#X obj 132 217 +;
#X obj 240 248 pack s \$1 \$2;
#X msg 242 282 read -resize \$1 \$2-snd\$3;
#X obj 153 403 pdkm/dknobu~ \$1-snd\$2 \$1-loc\$2 125;
#X obj 349 438 r \$1-ds\$2;
#X obj 264 434 r \$1-br\$2;
#X obj 198 656 pdkm/dkcospan~ 0;
#X obj 275 600 r \$1-cosp\$2;
#X text 756 14 NOBUSAMP for NOBULOOP;
#X text 762 46 arg1 - dollar 0;
#X text 761 70 arg2 - sound number;
#X text 854 93 Derek Kwan 2016;
#X obj 157 547 *~;
#X obj 180 491 r \$1-vol\$2;
#X obj 180 513 sig~;
#X obj 161 592 *~;
#X obj 214 601 line~;
#X msg 208 586 \$1 5;
#X obj 245 538 r \$1-tgl\$2;
#X obj 163 732 outlet~;
#X obj 273 740 outlet~;
#X obj 670 5 r \$1-rst\$2;
#X obj 69 156 moses 0;
#X obj 392 14 r \$1-tpo;
#X obj 69 178 abs;
#X obj 69 200 + 1;
#X text 137 162 0-10: sample positions;
#X text 6 86 -1: no skip;
#X text 10 112 -2: silence;
#X obj 68 222 moses 2;
#X obj 96 254 * -1;
#N canvas 519 125 631 537 randgen 0;
#X obj 238 164 r \$1-nrnd\$2;
#X obj 300 250 r \$1-subdiv;
#X obj 204 261 r \$1-nbeats;
#X obj 210 320 * 4;
#X obj 301 278 t b f;
#X obj 201 289 f;
#X obj 152 368 random 16;
#X obj 418 161 pack \$1 s \$2;
#X msg 466 126 symbol seq;
#X obj 427 104 t b b;
#X obj 169 127 t b b;
#X obj 119 169 until;
#X obj 105 204 f;
#X obj 165 199 + 1;
#X obj 158 232 % 1;
#X obj 158 254 sel 0;
#X obj 238 186 moses 1;
#X obj 73 254 t b b f;
#X obj 76 428 array set \$1-seq\$2 0;
#X text 43 148 do nrnd num times;
#X text 194 390 first select idx to randomize;
#X msg 418 183 \; \$1-\$2\$3 const -2;
#X obj 73 331 random 13;
#X obj 73 353 - 2;
#X text 19 400 select val to set to;
#X text 421 76 first zero out seq/stut;
#X obj 463 276 pack \$1 s \$2;
#X msg 511 241 symbol stut;
#X msg 463 297 \; \$1-\$2\$3 const 1;
#X obj 251 476 array set \$1-stut\$2 0;
#X obj 241 425 random 5;
#X obj 252 451 + 1;
#X obj 234 66 inlet;
#X connect 0 0 16 0;
#X connect 1 0 4 0;
#X connect 2 0 5 0;
#X connect 3 0 6 1;
#X connect 4 0 5 0;
#X connect 4 1 3 1;
#X connect 5 0 3 0;
#X connect 6 0 18 1;
#X connect 6 0 29 1;
#X connect 7 0 21 0;
#X connect 8 0 7 1;
#X connect 9 0 7 0;
#X connect 9 0 26 0;
#X connect 9 1 8 0;
#X connect 9 1 27 0;
#X connect 10 0 11 0;
#X connect 10 1 9 0;
#X connect 11 0 12 0;
#X connect 12 0 17 0;
#X connect 13 0 14 0;
#X connect 13 0 12 1;
#X connect 14 0 15 0;
#X connect 15 0 11 1;
#X connect 16 1 14 1;
#X connect 17 0 22 0;
#X connect 17 0 30 0;
#X connect 17 1 6 0;
#X connect 17 2 13 0;
#X connect 22 0 23 0;
#X connect 23 0 18 0;
#X connect 26 0 28 0;
#X connect 27 0 26 1;
#X connect 30 0 31 0;
#X connect 31 0 29 0;
#X connect 32 0 10 0;
#X restore 550 165 pd randgen;
#N canvas 1 93 450 300 reset 0;
#X obj 100 107 pack \$1 s \$2;
#X msg 148 72 symbol seq;
#X obj 158 203 pack \$1 s \$2;
#X msg 175 170 symbol stut;
#X obj 109 50 t b b;
#X msg 158 225 \; \$1-\$2\$3 const 1;
#X msg 100 129 \; \$1-\$2\$3 const -2;
#X obj 102 16 inlet;
#X connect 0 0 6 0;
#X connect 1 0 0 1;
#X connect 2 0 5 0;
#X connect 3 0 2 1;
#X connect 4 0 0 0;
#X connect 4 0 2 0;
#X connect 4 1 1 0;
#X connect 4 1 3 0;
#X connect 7 0 4 0;
#X restore 631 68 pd reset;
#N canvas 1 93 718 868 setlabels 0;
#X obj 86 18 inlet;
#X obj 116 145 pack \$1 s \$2;
#X msg 201 216 \; \$1-\$2\$3 xticks 0 1 4;
#X msg 168 254 \; \$1-\$2\$3 yticks 0 1 5;
#X obj 52 324 pack \$1 s \$2;
#X msg 135 382 \; \$1-\$2\$3 xticks 0 1 4;
#X msg 135 434 \; \$1-\$2\$3 yticks 0 1 2;
#X msg 126 469 \; \$1-\$2\$3 xlabel 0.9 0 4 8 12 16 20 24 28 32;
#X msg 37 514 \; \$1-\$2\$3 ylabel -0.1 1 2 3 4 5;
#X msg 69 291 symbol stut;
#X msg 142 107 symbol seq;
#X obj 240 587 pack \$1 s \$2;
#X msg 263 522 symbol loc;
#X msg 333 594 \; \$1-\$2\$3 yticks 0 0.1 5;
#X msg 333 542 \; \$1-\$2\$3 xticks 0 1 5;
#X msg 240 628 \; \$1-\$2\$3 xlabel -0.03 0 2 4 6 8 10;
#X msg 168 678 \; \$1-\$2\$3 ylabel -0.1 0 0.2 0.4 0.6 0.8 1;
#X msg 174 340 \; \$1-\$2\$3 ylabel -0.1 -1 0 2 4 6 8 10;
#X msg 186 300 \; \$1-\$2\$3 xlabel -1.1 0 4 8 12 16 20 24 28 32;
#X obj 82 64 t b b;
#X connect 0 0 19 0;
#X connect 1 0 2 0;
#X connect 1 0 3 0;
#X connect 1 0 18 0;
#X connect 1 0 17 0;
#X connect 4 0 5 0;
#X connect 4 0 6 0;
#X connect 4 0 7 0;
#X connect 4 0 8 0;
#X connect 9 0 4 1;
#X connect 10 0 1 1;
#X connect 11 0 14 0;
#X connect 11 0 13 0;
#X connect 11 0 15 0;
#X connect 11 0 16 0;
#X connect 12 0 11 1;
#X connect 19 0 1 0;
#X connect 19 0 9 0;
#X connect 19 0 4 0;
#X connect 19 0 11 0;
#X connect 19 1 10 0;
#X connect 19 1 12 0;
#X restore 473 75 pd setlabels;
#X obj 296 96 array get \$1-stut\$2 0 1;
#X obj 401 750 outlet;
#X obj 94 118 array get \$1-seq\$2 0 1;
#X obj 128 15 r \$1-count;
#X obj 250 19 r \$1-load\$2;
#X obj 499 18 loadbang;
#X obj 565 129 r \$1-rnd\$2;
#X obj 188 699 *~;
#X obj 327 680 sig~;
#X obj 272 711 *~;
#X obj 364 627 r \$1-mainvol;
#X obj 113 338 f;
#X text 53 336 seq;
#X connect 0 0 12 1;
#X connect 1 0 10 0;
#X connect 2 0 21 0;
#X connect 3 0 9 0;
#X connect 4 0 5 0;
#X connect 5 0 6 0;
#X connect 5 1 7 1;
#X connect 6 0 7 0;
#X connect 7 0 9 1;
#X connect 8 0 45 0;
#X connect 8 1 43 0;
#X connect 9 0 54 0;
#X connect 10 0 11 0;
#X connect 11 0 0 0;
#X connect 12 0 2 0;
#X connect 13 0 2 2;
#X connect 14 0 2 1;
#X connect 15 0 50 0;
#X connect 15 1 52 0;
#X connect 16 0 15 1;
#X connect 21 0 24 0;
#X connect 22 0 23 0;
#X connect 23 0 21 1;
#X connect 24 0 15 0;
#X connect 25 0 24 1;
#X connect 26 0 25 0;
#X connect 27 0 26 0;
#X connect 30 0 41 0;
#X connect 31 0 33 0;
#X connect 31 1 3 0;
#X connect 32 0 12 2;
#X connect 33 0 34 0;
#X connect 34 0 38 0;
#X connect 38 1 39 0;
#X connect 39 0 54 0;
#X connect 43 0 4 0;
#X connect 45 0 31 0;
#X connect 46 0 8 0;
#X connect 47 0 1 0;
#X connect 48 0 42 0;
#X connect 49 0 40 0;
#X connect 50 0 28 0;
#X connect 51 0 50 1;
#X connect 51 0 52 1;
#X connect 52 0 29 0;
#X connect 53 0 51 0;
#X connect 54 0 44 0;
#X connect 54 0 12 0;
