#N canvas 609 213 1006 784 10;
#X obj 241 324 soundfiler;
#X obj 240 226 openpanel;
#X obj 158 463 pdkm/dkwesley~ 32 1;
#X obj 132 195 i;
#X obj 270 122 i;
#X obj 349 151 t b f;
#X msg 349 173 1;
#X obj 349 195 /;
#X obj 120 42 t f f;
#X obj 132 217 +;
#X obj 240 248 pack s \$1 \$2;
#X msg 242 282 read -resize \$1 \$2-snd\$3;
#X obj 349 438 r \$1-ds\$2;
#X obj 264 434 r \$1-br\$2;
#X obj 198 656 pdkm/dkcospan~ 0;
#X obj 275 600 r \$1-cosp\$2;
#X text 756 14 NOBUSAMP for NOBULOOP;
#X text 762 46 arg1 - dollar 0;
#X text 761 70 arg2 - sound number;
#X text 854 93 Derek Kwan 2016;
#X obj 157 547 *~;
#X obj 180 491 r \$1-vol\$2;
#X obj 161 592 *~;
#X obj 214 601 line~;
#X msg 208 586 \$1 5;
#X obj 245 538 r \$1-tgl\$2;
#X obj 163 732 outlet~;
#X obj 273 740 outlet~;
#X obj 670 5 r \$1-rst\$2;
#X obj 69 156 moses 0;
#X obj 392 14 r \$1-tpo;
#X obj 69 178 abs;
#X obj 69 200 + 1;
#X text 137 162 0-10: sample positions;
#X text 6 86 -1: no skip;
#X text 10 112 -2: silence;
#X obj 68 222 moses 2;
#X obj 96 254 * -1;
#N canvas 276 172 631 537 randgen 0;
#X obj 238 164 r \$1-nrnd\$2;
#X obj 152 368 random 16;
#X obj 418 161 pack \$1 s \$2;
#X msg 466 126 symbol seq;
#X obj 427 104 t b b;
#X obj 169 127 t b b;
#X obj 119 169 until;
#X obj 105 204 f;
#X obj 165 199 + 1;
#X obj 158 232 % 1;
#X obj 158 254 sel 0;
#X obj 238 186 moses 1;
#X obj 73 254 t b b f;
#X obj 69 499 array set \$1-seq\$2 0;
#X text 43 148 do nrnd num times;
#X text 194 390 first select idx to randomize;
#X msg 418 183 \; \$1-\$2\$3 const -2;
#X obj 73 331 random 13;
#X obj 73 353 - 2;
#X text 19 400 select val to set to;
#X text 421 76 first zero out seq/stut;
#X obj 463 276 pack \$1 s \$2;
#X msg 511 241 symbol stut;
#X msg 463 297 \; \$1-\$2\$3 const 1;
#X obj 253 506 array set \$1-stut\$2 0;
#X obj 241 425 random 5;
#X obj 252 451 + 1;
#X obj 234 66 inlet;
#X obj 226 302 r \$0-hirange;
#X obj 155 429 +;
#X obj 258 360 r \$0-lorange;
#X connect 0 0 11 0;
#X connect 1 0 29 0;
#X connect 2 0 16 0;
#X connect 3 0 2 1;
#X connect 4 0 2 0;
#X connect 4 0 21 0;
#X connect 4 1 3 0;
#X connect 4 1 22 0;
#X connect 5 0 6 0;
#X connect 5 1 4 0;
#X connect 6 0 7 0;
#X connect 7 0 12 0;
#X connect 8 0 9 0;
#X connect 8 0 7 1;
#X connect 9 0 10 0;
#X connect 10 0 6 1;
#X connect 11 1 9 1;
#X connect 12 0 17 0;
#X connect 12 0 25 0;
#X connect 12 1 1 0;
#X connect 12 2 8 0;
#X connect 17 0 18 0;
#X connect 18 0 13 0;
#X connect 21 0 23 0;
#X connect 22 0 21 1;
#X connect 25 0 26 0;
#X connect 26 0 24 0;
#X connect 27 0 5 0;
#X connect 28 0 1 1;
#X connect 29 0 13 1;
#X connect 29 0 24 1;
#X connect 30 0 29 1;
#X restore 550 165 pd randgen;
#N canvas 1 97 450 300 reset 0;
#X obj 100 107 pack \$1 s \$2;
#X msg 148 72 symbol seq;
#X obj 158 203 pack \$1 s \$2;
#X msg 175 170 symbol stut;
#X obj 109 50 t b b;
#X msg 158 225 \; \$1-\$2\$3 const 1;
#X msg 100 129 \; \$1-\$2\$3 const -2;
#X obj 102 16 inlet;
#X connect 0 0 6 0;
#X connect 1 0 0 1;
#X connect 2 0 5 0;
#X connect 3 0 2 1;
#X connect 4 0 0 0;
#X connect 4 0 2 0;
#X connect 4 1 1 0;
#X connect 4 1 3 0;
#X connect 7 0 4 0;
#X restore 631 68 pd reset;
#N canvas 1 99 718 868 setlabels 0;
#X obj 86 18 inlet;
#X obj 116 145 pack \$1 s \$2;
#X msg 201 216 \; \$1-\$2\$3 xticks 0 1 4;
#X msg 168 254 \; \$1-\$2\$3 yticks 0 1 5;
#X obj 52 324 pack \$1 s \$2;
#X msg 135 382 \; \$1-\$2\$3 xticks 0 1 4;
#X msg 135 434 \; \$1-\$2\$3 yticks 0 1 2;
#X msg 126 469 \; \$1-\$2\$3 xlabel 0.9 0 4 8 12 16 20 24 28 32;
#X msg 37 514 \; \$1-\$2\$3 ylabel -0.1 1 2 3 4 5;
#X msg 69 291 symbol stut;
#X msg 142 107 symbol seq;
#X obj 240 587 pack \$1 s \$2;
#X msg 263 522 symbol loc;
#X msg 333 594 \; \$1-\$2\$3 yticks 0 0.1 5;
#X msg 333 542 \; \$1-\$2\$3 xticks 0 1 5;
#X msg 240 628 \; \$1-\$2\$3 xlabel -0.03 0 2 4 6 8 10;
#X msg 168 678 \; \$1-\$2\$3 ylabel -0.1 0 0.2 0.4 0.6 0.8 1;
#X msg 174 340 \; \$1-\$2\$3 ylabel -0.1 -1 0 2 4 6 8 10;
#X msg 186 300 \; \$1-\$2\$3 xlabel -1.1 0 4 8 12 16 20 24 28 32;
#X obj 82 64 t b b;
#X connect 0 0 19 0;
#X connect 1 0 2 0;
#X connect 1 0 3 0;
#X connect 1 0 18 0;
#X connect 1 0 17 0;
#X connect 4 0 5 0;
#X connect 4 0 6 0;
#X connect 4 0 7 0;
#X connect 4 0 8 0;
#X connect 9 0 4 1;
#X connect 10 0 1 1;
#X connect 11 0 14 0;
#X connect 11 0 13 0;
#X connect 11 0 15 0;
#X connect 11 0 16 0;
#X connect 12 0 11 1;
#X connect 19 0 1 0;
#X connect 19 0 9 0;
#X connect 19 0 4 0;
#X connect 19 0 11 0;
#X connect 19 1 10 0;
#X connect 19 1 12 0;
#X restore 473 75 pd setlabels;
#X obj 296 96 array get \$1-stut\$2 0 1;
#X obj 401 750 outlet;
#X obj 94 118 array get \$1-seq\$2 0 1;
#X obj 499 18 loadbang;
#X obj 565 129 r \$1-rnd\$2;
#X obj 188 699 *~;
#X obj 272 711 *~;
#X obj 364 627 r \$1-mainvol;
#X obj 113 338 f;
#X text 53 336 seq;
#X obj 356 256 s \$1-name\$2;
#X obj 250 18 r \$1-sndload\$2;
#X obj 180 513 sig~ 0;
#X obj 326 680 sig~ 0;
#X obj 128 15 r pdkcnt;
#N canvas 492 279 675 593 seq-presets 0;
#X obj 341 181 text define \$1-ps\$2;
#X obj 491 117 savepanel;
#X obj 512 73 r \$1-fsbang\$2;
#X msg 491 139 write \$1;
#X obj 406 80 r \$1-flbang\$2;
#X obj 406 102 openpanel;
#X msg 406 124 read \$1;
#X obj 152 337 list trim;
#X obj 129 203 array get \$1-seq\$2 0 -1;
#X obj 159 283 list append;
#X obj 315 265 array get \$1-stut\$2 0 -1;
#X obj 140 169 t b b;
#X obj 196 486 text set \$1-ps\$2;
#X obj 382 440 text get \$1-ps\$2;
#X obj 302 328 r \$1-psnum\$2;
#X obj 170 69 r \$1-psbang\$2;
#X obj 385 357 r \$1-plbang\$2;
#X obj 451 382 r \$1-plnum\$2;
#X obj 378 485 list split 32;
#X obj 297 539 array set \$1-seq\$2 0;
#X obj 497 543 array set \$1-stut\$2 0;
#X obj 550 219 until;
#X obj 551 241 f;
#X obj 622 309 + 1;
#X obj 551 264 t b f f;
#X obj 619 342 % 32;
#X obj 607 367 sel 0;
#X msg 498 291 0;
#X obj 557 160 loadbang;
#X obj 607 389 t b b;
#X obj 411 403 f 0;
#X obj 257 423 f;
#X obj 152 359 t l b;
#X connect 1 0 3 0;
#X connect 2 0 1 0;
#X connect 3 0 0 0;
#X connect 4 0 5 0;
#X connect 5 0 6 0;
#X connect 6 0 0 0;
#X connect 7 0 32 0;
#X connect 8 0 9 0;
#X connect 9 0 7 0;
#X connect 10 0 9 1;
#X connect 11 0 8 0;
#X connect 11 1 10 0;
#X connect 13 0 18 0;
#X connect 14 0 31 1;
#X connect 15 0 11 0;
#X connect 16 0 30 0;
#X connect 17 0 30 1;
#X connect 18 0 19 0;
#X connect 18 1 20 0;
#X connect 21 0 22 0;
#X connect 22 0 24 0;
#X connect 23 0 22 1;
#X connect 23 0 25 0;
#X connect 24 0 27 0;
#X connect 24 1 12 1;
#X connect 24 2 23 0;
#X connect 25 0 26 0;
#X connect 26 0 29 0;
#X connect 27 0 12 0;
#X connect 28 0 21 0;
#X connect 29 0 31 0;
#X connect 29 1 21 1;
#X connect 30 0 13 0;
#X connect 31 0 12 1;
#X connect 32 0 12 0;
#X connect 32 1 31 0;
#X restore 672 124 pd seq-presets;
#N canvas 126 124 625 517 loc-preset 0;
#X obj 61 25 r \$1-llbang\$2;
#X msg 65 101 read \$1;
#X obj 62 150 text define \$1-loctext\$2;
#X obj 200 42 r \$1-lsbang\$2;
#X obj 199 64 savepanel;
#X msg 198 114 write \$1;
#X obj 61 47 openpanel;
#X obj 61 69 t s b;
#X obj 69 210 spigot;
#X msg 126 176 1;
#X obj 202 85 t s b;
#X msg 164 182 0;
#X obj 60 301 text get \$1-loctest\$2;
#X obj 69 232 t b b p;
#X msg 111 271 -1;
#X msg 64 267 0;
#X obj 60 323 list trim;
#X obj 60 345 array set \$1-loc\$2 0;
#X connect 0 0 6 0;
#X connect 1 0 2 0;
#X connect 2 0 8 0;
#X connect 3 0 4 0;
#X connect 4 0 10 0;
#X connect 5 0 2 0;
#X connect 6 0 7 0;
#X connect 7 0 1 0;
#X connect 7 1 9 0;
#X connect 8 0 13 0;
#X connect 9 0 8 1;
#X connect 10 0 5 0;
#X connect 10 1 11 0;
#X connect 11 0 8 1;
#X connect 12 0 16 0;
#X connect 13 0 15 0;
#X connect 13 1 14 0;
#X connect 13 2 12 3;
#X connect 14 0 12 1;
#X connect 15 0 12 0;
#X connect 16 0 17 0;
#X restore 672 156 pd loc-preset;
#X obj 499 52 delay 125;
#X obj 153 404 pdkm/dknobu~ \$1-snd\$2 \$1-loc\$2 125;
#X msg 241 346 init;
#X connect 0 0 60 0;
#X connect 1 0 10 0;
#X connect 1 0 51 0;
#X connect 2 0 20 0;
#X connect 3 0 9 0;
#X connect 4 0 5 0;
#X connect 5 0 6 0;
#X connect 5 1 7 1;
#X connect 6 0 7 0;
#X connect 7 0 9 1;
#X connect 8 0 43 0;
#X connect 8 1 41 0;
#X connect 9 0 49 0;
#X connect 10 0 11 0;
#X connect 11 0 0 0;
#X connect 12 0 2 2;
#X connect 13 0 2 1;
#X connect 14 0 46 0;
#X connect 14 1 47 0;
#X connect 15 0 14 1;
#X connect 20 0 22 0;
#X connect 21 0 53 0;
#X connect 22 0 14 0;
#X connect 23 0 22 1;
#X connect 24 0 23 0;
#X connect 25 0 24 0;
#X connect 28 0 39 0;
#X connect 29 0 31 0;
#X connect 29 1 3 0;
#X connect 30 0 59 1;
#X connect 31 0 32 0;
#X connect 32 0 36 0;
#X connect 36 1 37 0;
#X connect 37 0 49 0;
#X connect 41 0 4 0;
#X connect 43 0 29 0;
#X connect 44 0 58 0;
#X connect 45 0 38 0;
#X connect 46 0 26 0;
#X connect 47 0 27 0;
#X connect 48 0 54 0;
#X connect 49 0 42 0;
#X connect 49 0 59 0;
#X connect 52 0 1 0;
#X connect 53 0 20 1;
#X connect 54 0 46 1;
#X connect 54 0 47 1;
#X connect 55 0 8 0;
#X connect 58 0 40 0;
#X connect 59 0 2 0;
#X connect 60 0 59 2;
