#N canvas 1123 493 487 315 10;
#X obj 371 3 cnv 15 100 150 empty empty sequencers 20 12 0 14 -260097
-66577 0;
#N canvas 674 174 644 382 seq2 1;
#X obj 13 6 dknblpa-seq \$0 2;
#X restore 410 54 pd seq2;
#N canvas 24 150 634 370 seq1 1;
#X obj 3 5 dknblpa-seq \$0 1;
#X restore 410 29 pd seq1;
#N canvas 25 598 636 367 seq3 1;
#X obj 10 4 dknblpa-seq \$0 3;
#X restore 410 78 pd seq3;
#N canvas 680 613 633 374 seq4 1;
#X obj 6 8 dknblpa-seq \$0 4;
#X restore 411 106 pd seq4;
#X obj 370 157 cnv 15 100 80 empty empty other 20 12 0 14 -233017 -66577
0;
#N canvas 962 449 465 367 locations 0;
#X obj 6 6 cnv 15 450 350 empty empty empty 20 12 0 14 -262130 -66577
0;
#X obj 231 31 cnv 15 200 140 empty empty empty 20 12 0 14 -228856 -66577
0;
#X obj 18 187 cnv 15 200 140 empty empty empty 20 12 0 14 -228856 -66577
0;
#X obj 234 190 cnv 15 200 140 empty empty empty 20 12 0 14 -228856
-66577 0;
#X obj 19 31 cnv 15 200 140 empty empty empty 20 12 0 14 -228856 -66577
0;
#N canvas 0 50 450 250 (subpatch) 0;
#X array \$0-loc2 10 float 3;
#A 0 0.549991 0.650002 0.89286 0.507143 0.292856 0.164284 0.164284
0.192856 0.192856 0.74284;
#X coords 0 1 10 0 200 140 1 0 0;
#X restore 231 31 graph;
#N canvas 0 50 450 250 (subpatch) 0;
#X array \$0-loc3 10 float 3;
#A 0 0.185715 0.300001 0.971434 0.900005 0.807147 0.378573 0.285716
0.207144 0.178572 0.114286;
#X coords 0 1 10 0 200 140 1 0 0;
#X restore 18 187 graph;
#N canvas 0 50 450 250 (subpatch) 0;
#X array \$0-loc4 10 float 3;
#A 0 0.185715 0.300001 0.971434 0.900005 0.807147 0.378573 0.285716
0.207144 0.178572 0.114286;
#X coords 0 1 10 0 200 140 1 0 0;
#X restore 233 190 graph;
#N canvas 0 50 450 250 (subpatch) 0;
#X array \$0-loc1 10 float 3;
#A 0 0.535714 0.342858 0.407144 0.464287 0.47143 0.385715 0.321429
0.292857 0.55 0.564286;
#X coords 0 1 10 0 200 140 1 0 0;
#X restore 19 31 graph;
#X restore 376 182 pd locations;
#N canvas 1324 116 325 218 transport 1;
#X obj 6 5 cnv 15 310 200 empty empty empty 20 12 0 14 -232576 -66577
0;
#X obj 12 20 tgl 30 0 \$0-mto empty metro 0 -7 0 10 -204800 -33289
-1 1 1;
#X obj 213 120 nbx 5 30 0 1 0 0 empty \$0-mainvol main_vol 0 -8 0 15
-1 -257985 -1 1 256;
#X obj 100 22 nbx 5 30 10 1000 0 0 \$0-tpo \$0-tpor tempo 0 -8 0 15
-204800 -1 -1 125 256;
#X obj 55 20 bng 30 250 50 0 \$0-rst empty reset 0 -7 0 10 -257985
-1 -1;
#X obj 109 119 nbx 5 30 0 100 0 0 empty \$0-cursub cursub 0 -8 0 15
-1 -257985 -1 1 256;
#X obj 189 16 bng 50 250 50 0 empty \$0-meas meas 0 -7 0 10 -66577
-257985 -1;
#X obj 247 20 bng 50 250 50 0 empty \$0-beat beat 0 -7 0 10 -45076
-257985 -1;
#X obj 10 160 hsl 300 30 0 1 0 0 \$0-mainvol empty main_vol -2 -8 0
10 -257985 -1 -1 29900 1;
#X obj 111 69 nbx 5 30 1 8 0 0 \$0-nbeats \$0-nbeatsr beats 0 -8 0
15 -204800 -33289 -1 4 256;
#X obj 11 66 nbx 5 30 2 4 0 0 \$0-subdiv \$0-subdivr subdiv 0 -8 0
15 -204800 -1 -1 4 256;
#X obj 15 116 nbx 5 30 0 100 0 0 empty \$0-curbeat curbeat 0 -8 0 15
-1 -257985 -1 1 256;
#X restore 376 210 pd transport;
#X obj 370 234 cnv 15 100 60 empty empty brains 20 12 0 14 -232576
-66577 0;
#N canvas 554 326 974 617 loader 0;
#X obj 132 46 array define \$0-snd1;
#X obj 116 276 dac~ 1 2;
#X msg 386 81 4;
#X obj 386 103 s \$0-nbeatsr;
#X msg 504 77 125;
#X obj 504 99 s \$0-tpor;
#X obj 457 23 loadbang;
#X msg 518 171 4;
#X obj 518 193 s \$0-subdivr;
#X obj 350 274 r \$0-mto;
#X obj 350 297 metro 125;
#X obj 459 260 r \$0-tpo;
#X obj 459 311 r \$0-rst;
#X obj 538 269 r \$0-nbeats;
#X obj 620 254 r \$0-subdiv;
#X obj 620 276 t b f;
#X obj 313 403 s \$0-count;
#X obj 393 389 % 4;
#X obj 562 329 * 4;
#X obj 393 411 sel 0;
#X obj 383 440 s \$0-beat;
#X obj 464 398 % 16;
#X obj 464 420 sel 0;
#X obj 464 442 s \$0-meas;
#X obj 356 358 pdkm/dkvanctr 16;
#X obj 576 421 / 4;
#X obj 574 466 % 4;
#X obj 576 443 i;
#X obj 574 488 s \$0-curbeat;
#X obj 427 485 s \$0-cursub;
#X msg 604 82 32;
#X obj 609 149 s \$0-dsr;
#X obj 602 103 s \$0-brr;
#X msg 623 129 1;
#X msg 392 140 1;
#X obj 398 166 s \$0-nrndr;
#X obj 136 71 array define \$0-snd2;
#X obj 137 98 array define \$0-snd3;
#X obj 139 122 array define \$0-snd4;
#X floatatom 92 186 5 0 0 0 - - -, f 5;
#X floatatom 302 196 5 0 0 0 - - -, f 5;
#X floatatom 77 296 5 0 0 0 - - -, f 5;
#X floatatom 216 278 5 0 0 0 - - -, f 5;
#X obj 34 154 dknblpa-samp \$0 1;
#X obj 156 185 dknblpa-samp \$0 2;
#X obj 25 218 dknblpa-samp \$0 3;
#X obj 185 228 dknblpa-samp \$0 4;
#X connect 2 0 3 0;
#X connect 4 0 5 0;
#X connect 6 0 2 0;
#X connect 6 0 4 0;
#X connect 6 0 7 0;
#X connect 6 0 30 0;
#X connect 6 0 33 0;
#X connect 6 0 34 0;
#X connect 7 0 8 0;
#X connect 9 0 10 0;
#X connect 10 0 24 0;
#X connect 11 0 10 1;
#X connect 12 0 24 3;
#X connect 13 0 18 0;
#X connect 13 0 26 1;
#X connect 14 0 15 0;
#X connect 14 0 17 1;
#X connect 14 0 25 1;
#X connect 15 0 18 0;
#X connect 15 1 18 1;
#X connect 17 0 19 0;
#X connect 17 0 29 0;
#X connect 18 0 21 1;
#X connect 18 0 24 1;
#X connect 19 0 20 0;
#X connect 21 0 22 0;
#X connect 22 0 23 0;
#X connect 24 0 16 0;
#X connect 24 0 17 0;
#X connect 24 0 21 0;
#X connect 24 0 25 0;
#X connect 25 0 27 0;
#X connect 26 0 28 0;
#X connect 27 0 26 0;
#X connect 30 0 32 0;
#X connect 33 0 31 0;
#X connect 34 0 35 0;
#X connect 43 0 1 0;
#X connect 43 1 1 1;
#X connect 43 2 39 0;
#X connect 44 0 1 0;
#X connect 44 1 1 1;
#X connect 44 2 40 0;
#X connect 45 0 1 0;
#X connect 45 1 1 1;
#X connect 45 2 41 0;
#X connect 46 0 1 0;
#X connect 46 1 1 1;
#X connect 46 2 42 0;
#X restore 393 269 pd loader;
#X obj 4 5 cnv 15 350 300 empty empty nobulooper_by_derek_kwan_gpl_v3
20 12 0 14 -261234 -66577 0;
#X text 7 91 SEQUENCERS: one per soundfile;
#X text 53 108 seq - >= 0: skip to location number;
#X text 103 124 -1 : don't skip;
#X text 115 142 2: silence;
#X text 53 158 stut - stutter x times per subdivision;
#X text 2 212 TRANSPORT: overall sequencer controls;
#X text 6 191 LOCATIONS: define location numbers for soundfiles;
#X text 7 235 LOADER: brains \, usu don't need to touch;
